# xmcd CD database file
#
# Track frame offsets:
#	150
#	12020
#	27714
#	39967
#	50933
#
# Disc length: 849 seconds
#
# Revision: 0
# Processed by: cddbd v1.5.2PL0 Copyright (c) Steve Scherf et al.
# Submitted via: CDex 1.70beta2
#
DISCID=3b034f05
DTITLE=voice meets piano - Swinging Christmas
DYEAR=2008
DGENRE=Jazz
TTITLE0=Winter Wonderland
TTITLE1=Have Yourself A Merry Little Christmas
TTITLE2=Santa Claus Is Coming To Town
TTITLE3=All I Want For Christmas
TTITLE4=Let It Snow!
EXTD=YEAR: 2008
EXTT0=
EXTT1=
EXTT2=
EXTT3=
EXTT4=
PLAYORDER=
